<?xml version="1.0" standalone="no"?>
<!DOCTYPE svg PUBLIC "-//W3C//DTD SVG 20010904//EN"
 "http://www.w3.org/TR/2001/REC-SVG-20010904/DTD/svg10.dtd">
<svg version="1.0" xmlns="http://www.w3.org/2000/svg"
 width="200.000000pt" height="200.000000pt" viewBox="0 0 200.000000 200.000000"
 preserveAspectRatio="xMidYMid meet">
<metadata>
Created by potrace 1.16, written by Peter Selinger 2001-2019
</metadata>
<g transform="translate(0.000000,200.000000) scale(0.100000,-0.100000)"
fill="#000000" stroke="none">
<path d="M483 1241 l48 -6 2 -202 c1 -110 -2 -196 -6 -190 -5 7 -7 2 -4 -11 3
-13 3 -22 0 -19 -3 3 -15 -6 -27 -20 -15 -17 -38 -29 -67 -33 -41 -7 -39 -7
21 -7 42 0 58 2 45 8 l-20 8 20 0 c11 1 35 10 53 21 17 11 32 17 32 15 0 -3
-15 -14 -32 -25 -18 -11 -28 -20 -23 -20 17 0 54 29 66 52 6 11 7 18 1 15 -5
-4 -7 5 -4 21 5 24 6 25 13 7 4 -11 7 66 6 172 -2 210 -4 203 58 216 11 3 -36
4 -105 4 -76 0 -106 -2 -77 -6z"/>
<path d="M660 1196 c0 -9 11 -16 28 -18 l27 -3 5 -170 c6 -195 12 -213 83
-246 55 -24 150 -25 196 -1 68 34 75 56 81 227 4 132 8 156 24 174 11 12 25
21 33 21 7 0 13 7 13 15 0 13 -14 15 -82 13 -82 -3 -106 -15 -66 -33 41 -18
49 -50 46 -190 -4 -152 -14 -178 -80 -196 -53 -14 -92 -4 -123 33 -25 30 -25
31 -23 192 l3 161 33 3 c20 2 32 8 29 15 -2 8 -40 13 -115 15 -93 2 -112 0
-112 -12z"/>
<path d="M1135 960 c-16 -7 -16 -9 -4 -9 24 -1 29 -22 29 -107 0 -68 -2 -75
-22 -84 -18 -7 -9 -9 37 -9 58 -1 59 -1 36 15 -21 15 -23 22 -18 76 6 65 27
98 61 98 41 0 50 -16 54 -88 4 -64 2 -71 -19 -86 -23 -16 -22 -16 36 -16 57 0
58 1 37 16 -19 13 -22 24 -22 88 0 46 -5 79 -14 91 -17 24 -78 25 -104 2 -24
-22 -32 -21 -32 3 0 21 -20 25 -55 10z"/>
</g>
</svg>
