<?xml version="1.0" standalone="no"?>
<!DOCTYPE svg PUBLIC "-//W3C//DTD SVG 20010904//EN"
 "http://www.w3.org/TR/2001/REC-SVG-20010904/DTD/svg10.dtd">
<svg version="1.0" xmlns="http://www.w3.org/2000/svg"
 width="586.000000pt" height="200.000000pt" viewBox="0 0 586.000000 200.000000"
 preserveAspectRatio="xMidYMid meet">
<metadata>
Created by potrace 1.16, written by Peter Selinger 2001-2019
</metadata>
<g transform="translate(0.000000,200.000000) scale(0.100000,-0.100000)"
fill="#000000" stroke="none">
<path d="M3075 1558 c-33 -19 -44 -41 -44 -83 0 -57 36 -95 89 -95 35 0 80 53
80 93 0 49 -8 66 -41 82 -33 18 -57 18 -84 3z"/>
<path d="M4680 1496 l0 -75 72 -3 71 -3 33 -78 33 -77 -191 -323 c-105 -177
-198 -332 -206 -344 l-14 -23 84 0 84 0 155 244 c84 134 156 243 159 241 3 -2
52 -120 109 -263 l104 -260 61 23 c34 12 95 35 137 50 l76 29 -19 58 c-11 32
-22 58 -25 58 -3 0 -33 -10 -66 -22 -34 -12 -62 -18 -64 -13 -2 6 -77 199
-166 430 l-162 420 -132 3 -133 3 0 -75z"/>
<path d="M490 1477 c0 -21 7 -25 55 -36 38 -9 61 -20 76 -39 20 -26 20 -33 16
-372 -4 -377 -7 -398 -61 -458 -30 -32 -39 -36 -92 -39 -47 -3 -66 0 -92 17
-18 11 -35 26 -38 34 -3 7 11 44 30 81 44 81 45 108 7 146 -69 69 -161 16
-161 -93 0 -153 119 -250 287 -235 108 10 193 69 240 165 l28 57 5 350 c3 193
9 355 13 362 4 7 35 18 67 25 52 10 60 15 60 35 l0 23 -220 0 -220 0 0 -23z"/>
<path d="M1020 1476 c0 -20 7 -25 43 -34 84 -22 81 -9 87 -401 5 -316 7 -349
24 -385 45 -90 142 -151 273 -169 174 -26 335 44 405 176 22 40 23 54 28 367
3 179 10 334 14 345 17 38 39 54 92 66 47 11 54 15 54 36 l0 23 -200 0 -200 0
0 -25 c0 -20 6 -25 38 -31 52 -9 89 -30 109 -61 16 -24 18 -61 21 -319 4 -316
0 -346 -47 -411 -46 -63 -107 -88 -216 -88 -77 0 -96 3 -135 25 -49 28 -84 73
-100 129 -13 48 -13 666 0 691 6 12 31 23 65 31 47 11 55 15 55 36 l0 23 -205
0 -205 0 0 -24z"/>
<path d="M3470 1300 l0 -110 -65 0 -65 0 0 -35 0 -35 59 0 60 0 3 -274 c3
-259 4 -276 24 -303 36 -49 79 -65 159 -59 97 7 165 31 165 60 0 20 -4 21 -73
18 -66 -4 -76 -2 -101 19 -39 35 -45 78 -46 322 l0 217 100 0 100 0 0 35 0 35
-100 0 -100 0 0 110 0 110 -60 0 -60 0 0 -110z"/>
<path d="M5645 1363 c-45 -49 -49 -82 -25 -184 15 -64 20 -118 19 -185 -1 -52
0 -96 2 -98 2 -1 17 -12 33 -24 41 -31 74 -29 83 6 15 53 8 263 -11 337 -19
70 -60 175 -70 175 -3 0 -17 -12 -31 -27z"/>
<path d="M2270 1205 c-8 -2 -50 -7 -92 -10 -73 -6 -78 -8 -78 -30 0 -18 7 -24
34 -29 69 -13 71 -20 74 -292 l3 -244 -25 -25 c-14 -14 -37 -25 -51 -25 -20 0
-25 -5 -25 -25 l0 -25 165 0 165 0 0 24 c0 18 -7 26 -27 31 -16 3 -38 13 -50
21 -23 14 -23 17 -23 237 l0 223 33 32 c89 86 206 81 248 -11 16 -37 19 -67
19 -250 0 -208 0 -208 -25 -232 -15 -16 -36 -25 -55 -25 -25 0 -30 -4 -30 -25
l0 -25 170 0 170 0 0 24 c0 19 -7 25 -34 30 -59 11 -61 16 -66 280 l-5 241
-28 47 c-38 65 -74 83 -167 83 -84 0 -119 -14 -185 -74 l-40 -36 -5 55 c-5 50
-7 55 -30 57 -14 0 -32 0 -40 -2z"/>
<path d="M3115 1204 c-11 -2 -55 -6 -97 -9 -73 -6 -78 -8 -78 -30 0 -19 8 -25
45 -34 72 -18 75 -30 75 -301 0 -140 -4 -239 -10 -251 -7 -11 -26 -21 -50 -25
-34 -6 -40 -10 -40 -30 l0 -24 165 0 165 0 0 23 c0 19 -8 26 -40 36 -22 6 -44
20 -50 31 -6 11 -10 135 -10 319 l0 301 -27 -1 c-16 -1 -37 -3 -48 -5z"/>
</g>
</svg>
