<?xml version="1.0" standalone="no"?><!DOCTYPE svg PUBLIC "-//W3C//DTD SVG 1.1//EN" "http://www.w3.org/Graphics/SVG/1.1/DTD/svg11.dtd"><svg t="1609821216671" class="icon" viewBox="0 0 1024 1024" version="1.1" xmlns="http://www.w3.org/2000/svg" p-id="7910" xmlns:xlink="http://www.w3.org/1999/xlink" width="200" height="200"><defs><style type="text/css"></style></defs><path d="M86.021166 440.776865l829.891094-300.628942c16.83748-5.928013 35.06154 2.291183 40.97011 18.917862 3.192715 7.945973 2.75167 16.164145-0.674359 23.437805L692.700525 865.298512c-6.369058 16.395412-24.803919 24.570605-41.430598 18.434861-2.732228-1.134847-5.254677-2.963495-7.735172-4.560876C312.153416 655.075603 462.23662 756.877173 79.187527 497.026984c-14.817474-10.026354-18.686594-29.848819-8.66024-44.415582C74.605162 446.704878 80.09213 442.836781 86.021166 440.776865L86.021166 440.776865zM376.831484 621.823268 376.831484 621.823268l445.246667-380.106064L167.073156 479.264435 376.831484 621.823268 376.831484 621.823268zM856.909447 262.443247 856.909447 262.443247 410.085866 643.684158l237.548254 161.01416L856.909447 262.443247 856.909447 262.443247z" p-id="7911" fill="#1296db"></path></svg>