<?xml version="1.0" standalone="no"?><!DOCTYPE svg PUBLIC "-//W3C//DTD SVG 1.1//EN" "http://www.w3.org/Graphics/SVG/1.1/DTD/svg11.dtd"><svg t="1609817320844" class="icon" viewBox="0 0 1024 1024" version="1.1" xmlns="http://www.w3.org/2000/svg" p-id="3704" xmlns:xlink="http://www.w3.org/1999/xlink" width="200" height="200"><defs><style type="text/css"></style></defs><path d="M731.9 460.1c0-117.8-93.5-213.7-210.3-217.6-124.9-4.2-227.3 96.5-225.1 221.4 1.2 69.8 35.2 131.6 87.3 170.6h-0.1s43.3 39.5 46.9 69.1c1.6 12.8 0.5 25.7-1.2 36.1-2 12.2 7.4 23.2 19.7 23.2h130c12.3 0 21.7-11 19.7-23.2-1.7-10.4-2.7-23.3-1.2-36.1 3.6-29.6 46.9-69.1 46.9-69.1h-0.1c53.2-39.7 87.5-103.1 87.5-174.4z" fill="#FFE91A" p-id="3705"></path><path d="M579.2 770.9h-130c-8.2 0-16-3.6-21.3-9.9-5.3-6.3-7.6-14.5-6.3-22.6 2-12.3 2.4-23.7 1.1-33.8-2.7-21.9-32.9-53.8-44.4-64.2l-0.3-0.3c-26.5-20.1-48.7-46.2-64-75.7-16.3-31.2-24.9-65-25.5-100.4-0.5-31.6 5.3-62.3 17.3-91.1 11.6-27.8 28.4-52.6 50-73.9 21.6-21.2 46.7-37.6 74.7-48.8 29-11.6 59.8-16.9 91.4-15.8 58.7 2 113.5 26.3 154.4 68.5 41 42.3 63.6 98.1 63.6 157.1 0 36.2-8.3 70.7-24.7 102.7-15.4 30.1-37.8 56.8-64.9 77.3l-0.3 0.3c-11.4 10.4-41.7 42.4-44.4 64.2-1.3 10.2-0.9 21.6 1.1 33.8 1.3 8.1-1 16.3-6.3 22.6-5.2 6.4-13 10-21.2 10zM390.1 629.5c6.9 6.5 44.8 43.2 48.4 73.1 1.4 11.7 1 24.6-1.2 38.3-0.6 3.5 0.4 7 2.7 9.7 2.3 2.7 5.6 4.2 9.1 4.2h130c3.5 0 6.9-1.5 9.1-4.2 2.3-2.7 3.3-6.2 2.7-9.7-2.2-13.8-2.6-26.7-1.2-38.3 3.7-29.9 41.6-66.7 48.5-73.1 0.4-0.5 0.9-1 1.5-1.4 53.5-40 84.2-101.3 84.2-168 0-113.7-89-205.8-202.6-209.6-58.2-2-113 19.4-154.3 60-41.3 40.6-63.5 95.1-62.5 153.3 1.1 65.2 31.8 125.1 84.1 164.3 0.6 0.4 1.1 0.9 1.5 1.4z" fill="#4F0F00" p-id="3706"></path><path d="M614.8 391.5c-17.1 0-34.2 56.2-45.6 56.2-15.3 0-38-56.2-55-56.2-15.2 0-39.7 56.2-55 56.2-11.4 0-28.5-56.2-45.6-56.2-24.7 0-49.4 69.2-49.4 69.2h300c-0.1 0-24.7-69.2-49.4-69.2z" fill="#FFC41D" p-id="3707"></path><path d="M664.1 468.7H364.2c-2.6 0-5-1.3-6.5-3.4-1.5-2.1-1.9-4.8-1-7.3 0.3-0.7 6.5-18.1 15.9-35.7 14-26.1 27.4-38.8 41-38.8 14.1 0 23.9 17.7 34.3 36.5 3.7 6.6 9 16.3 12.1 19.4 4.9-2.6 14.4-16.1 20.3-24.4 11.9-16.9 22.2-31.4 34-31.4 13 0 24 15.9 35.6 32.7 5.4 7.8 14.2 20.5 18.7 23.1 3.1-3.1 8.4-12.7 12-19.3 10.4-18.8 20.1-36.5 34.3-36.5 13.6 0 27 12.7 41 38.8 9.4 17.6 15.6 35 15.9 35.7 0.9 2.4 0.5 5.2-1 7.3-1.6 2-4.1 3.3-6.7 3.3z m-86.7-16h75c-2.6-6.3-6.4-14.7-10.8-23-11.9-22.3-21.7-30.2-26.8-30.2-0.1 0-2.6 0.4-7.8 7.5-4.2 5.7-8.4 13.3-12.5 20.7-6.2 11.3-11.3 20.5-17.1 25z m-108.8 0h91.3c-7.8-5-15.2-15.6-23.3-27.4-4.7-6.9-9.6-14-14.2-19.1-5.1-5.8-7.6-6.6-8.1-6.7-4.5 1.3-14.8 15.9-21 24.6-8.7 12.3-16.6 23.4-24.7 28.6z m-92.7 0H451c-5.8-4.5-10.9-13.6-17.1-25-4.1-7.4-8.3-15-12.5-20.7-5.2-7.2-7.8-7.5-7.8-7.5-10.8 0-27.3 28.2-37.7 53.2z m193.6-13z" fill="#4F0F00" p-id="3708"></path><path d="M614.8 435.4c-17.1 0-34.2 56.2-45.6 56.2-15.3 0-38-56.2-55-56.2-15.2 0-39.7 56.2-55 56.2-11.4 0-28.5-56.2-45.6-56.2-24.7 0-49.4 69.2-49.4 69.2h300c-0.1 0-24.7-69.2-49.4-69.2z" fill="#FFE91A" p-id="3709"></path><path d="M664.1 512.6H364.2c-2.6 0-5-1.3-6.5-3.4-1.5-2.1-1.9-4.8-1-7.3 0.3-0.7 6.5-18.1 15.9-35.7 14-26.1 27.4-38.8 41-38.8 14.1 0 23.9 17.7 34.3 36.5 3.7 6.6 9 16.3 12.1 19.4 4.9-2.6 14.4-16.1 20.3-24.4 11.9-16.9 22.2-31.4 34-31.4 13 0 24 15.9 35.6 32.7 5.4 7.8 14.2 20.5 18.7 23.1 3.1-3.1 8.4-12.7 12-19.3 10.4-18.8 20.1-36.5 34.3-36.5 13.6 0 27 12.7 41 38.8 9.4 17.6 15.6 35 15.9 35.7 0.9 2.4 0.5 5.2-1 7.3-1.6 2-4.1 3.3-6.7 3.3z m-86.7-16h75c-2.6-6.3-6.4-14.7-10.8-23-11.9-22.3-21.7-30.2-26.8-30.2-0.1 0-2.6 0.4-7.8 7.5-4.2 5.7-8.4 13.3-12.5 20.7-6.2 11.4-11.3 20.5-17.1 25z m-108.8 0h91.3c-7.8-5-15.2-15.6-23.3-27.4-4.7-6.9-9.6-14-14.2-19.1-5.1-5.8-7.6-6.6-8.1-6.7-4.5 1.3-14.8 15.9-21 24.6-8.7 12.4-16.6 23.5-24.7 28.6z m-92.7 0H451c-5.8-4.5-10.9-13.6-17.1-25-4.1-7.4-8.3-15-12.5-20.7-5.2-7.2-7.8-7.5-7.8-7.5-10.8 0-27.3 28.2-37.7 53.2z m193.6-13z" fill="#4F0F00" p-id="3710"></path><path d="M576.8 765.3H451.6c-15.1 0-24.8-16.1-17.6-29.4l0.3-0.6h160l0.9 2c5.7 13.2-4 28-18.4 28z" fill="#FFC41D" p-id="3711"></path><path d="M576.8 773.3H451.6c-9.9 0-18.9-5.1-24-13.6-5.1-8.5-5.4-18.8-0.7-27.6l0.3-0.6c1.4-2.6 4.1-4.2 7.1-4.2h160c3.2 0 6.1 1.9 7.3 4.8l0.9 2c3.8 8.7 2.9 18.6-2.3 26.5-5.2 7.9-13.9 12.7-23.4 12.7z m-137.1-30c-0.5 2.8 0 5.6 1.6 8.2 2.2 3.7 6 5.8 10.3 5.8h125.2c4.1 0 7.8-2 10-5.4 1.7-2.6 2.3-5.6 1.8-8.6H439.7z" fill="#4F0F00" p-id="3712"></path><path d="M568.9 738.1H456.7c-3.5 0-6.6-2.3-7.7-5.7l-67.5-225.3c-0.7-2.4-0.3-5 1.2-7.1 1.5-2 3.9-3.2 6.4-3.2h250c2.5 0 4.9 1.2 6.4 3.3 1.5 2 2 4.7 1.2 7.1l-70.3 225.3c-0.9 3.3-4 5.6-7.5 5.6z m-106.2-16H563l65.3-209.3H399.9l62.8 209.3z" fill="#4F0F00" p-id="3713"></path><path d="M514.2 106.5v94.1" fill="#FFC41D" p-id="3714"></path><path d="M514.2 208.6c-4.4 0-8-3.6-8-8v-94.1c0-4.4 3.6-8 8-8s8 3.6 8 8v94.1c0 4.4-3.6 8-8 8z" fill="#4F0F00" p-id="3715"></path><path d="M280.4 197.5l66.5 66.6" fill="#FFC41D" p-id="3716"></path><path d="M346.9 272.1c-2 0-4.1-0.8-5.7-2.3l-66.6-66.6c-3.1-3.1-3.1-8.2 0-11.3 3.1-3.1 8.2-3.1 11.3 0l66.6 66.6c3.1 3.1 3.1 8.2 0 11.3-1.5 1.5-3.5 2.3-5.6 2.3z" fill="#4F0F00" p-id="3717"></path><path d="M748 197.5l-66.5 66.6" fill="#FFC41D" p-id="3718"></path><path d="M681.5 272.1c-2 0-4.1-0.8-5.7-2.3-3.1-3.1-3.1-8.2 0-11.3l66.6-66.6c3.1-3.1 8.2-3.1 11.3 0 3.1 3.1 3.1 8.2 0 11.3l-66.6 66.6c-1.5 1.5-3.6 2.3-5.6 2.3z" fill="#4F0F00" p-id="3719"></path><path d="M599.2 821.2h-170c-8.3 0-15-6.7-15-15s6.7-15 15-15h170c8.3 0 15 6.7 15 15s-6.7 15-15 15z" fill="#FC5B5B" p-id="3720"></path><path d="M599.2 829.2h-170c-12.7 0-23-10.3-23-23s10.3-23 23-23h170c12.7 0 23 10.3 23 23s-10.3 23-23 23z m-170-30c-3.9 0-7 3.1-7 7s3.1 7 7 7h170c3.9 0 7-3.1 7-7s-3.1-7-7-7h-170z" fill="#4F0F00" p-id="3721"></path><path d="M599.2 850.4h-170c-8.3 0-15-6.7-15-15s6.7-15 15-15h170c8.3 0 15 6.7 15 15s-6.7 15-15 15z" fill="#FFC41D" p-id="3722"></path><path d="M599.2 858.4h-170c-12.7 0-23-10.3-23-23s10.3-23 23-23h170c12.7 0 23 10.3 23 23s-10.3 23-23 23z m-170-30c-3.9 0-7 3.1-7 7s3.1 7 7 7h170c3.9 0 7-3.1 7-7s-3.1-7-7-7h-170z" fill="#4F0F00" p-id="3723"></path><path d="M599.2 879.6h-170c-8.3 0-15-6.7-15-15s6.7-15 15-15h170c8.3 0 15 6.7 15 15 0 8.2-6.7 15-15 15z" fill="#FC5B5B" p-id="3724"></path><path d="M599.2 887.6h-170c-12.7 0-23-10.3-23-23s10.3-23 23-23h170c12.7 0 23 10.3 23 23s-10.3 23-23 23z m-170-30c-3.9 0-7 3.1-7 7s3.1 7 7 7h170c3.9 0 7-3.1 7-7s-3.1-7-7-7h-170z" fill="#4F0F00" p-id="3725"></path><path d="M576.2 887.4c0 19.9-27.8 36-62 36s-62-16.1-62-36" fill="#FC5B5B" p-id="3726"></path><path d="M514.2 931.4c-39.3 0-70-19.3-70-44 0-4.4 3.6-8 8-8s8 3.6 8 8c0 13.2 22.2 28 54 28s54-14.8 54-28c0-4.4 3.6-8 8-8s8 3.6 8 8c0 24.6-30.8 44-70 44z" fill="#4F0F00" p-id="3727"></path><path d="M514.2 734.3c-4.4 0-8-3.6-8-8V513.9c0-4.4 3.6-8 8-8s8 3.6 8 8v212.4c0 4.4-3.6 8-8 8z" fill="#4F0F00" p-id="3728"></path></svg>