<?xml version="1.0" standalone="no"?>
<!DOCTYPE svg PUBLIC "-//W3C//DTD SVG 20010904//EN"
 "http://www.w3.org/TR/2001/REC-SVG-20010904/DTD/svg10.dtd">
<svg version="1.0" xmlns="http://www.w3.org/2000/svg"
 width="200.000000pt" height="200.000000pt" viewBox="0 0 200.000000 200.000000"
 preserveAspectRatio="xMidYMid meet">

<g transform="translate(0.000000,200.000000) scale(0.100000,-0.100000)"
fill="#000000" stroke="none">
<path d="M483 1241 l48 -6 2 -202 c1 -110 -2 -196 -6 -190 -5 7 -7 2 -4 -11 3
-13 3 -22 0 -19 -3 3 -15 -6 -27 -20 -15 -17 -38 -29 -67 -33 -41 -7 -39 -7
21 -7 42 0 58 2 45 8 l-20 8 20 0 c11 1 35 10 53 21 17 11 32 17 32 15 0 -3
-15 -14 -32 -25 -18 -11 -28 -20 -23 -20 17 0 54 29 66 52 6 11 7 18 1 15 -5
-4 -7 5 -4 21 5 24 6 25 13 7 4 -11 7 66 6 172 -2 210 -4 203 58 216 11 3 -36
4 -105 4 -76 0 -106 -2 -77 -6z"/>
<path d="M660 1196 c0 -9 11 -16 28 -18 l27 -3 5 -170 c6 -195 12 -213 83
-246 55 -24 150 -25 196 -1 68 34 75 56 81 227 4 132 8 156 24 174 11 12 25
21 33 21 7 0 13 7 13 15 0 13 -14 15 -82 13 -82 -3 -106 -15 -66 -33 41 -18
49 -50 46 -190 -4 -152 -14 -178 -80 -196 -53 -14 -92 -4 -123 33 -25 30 -25
31 -23 192 l3 161 33 3 c20 2 32 8 29 15 -2 8 -40 13 -115 15 -93 2 -112 0
-112 -12z"/>
<path d="M1444 1079 c-3 -6 0 -17 8 -25 13 -13 16 -13 27 0 7 8 10 20 6 26 -8
13 -32 13 -41 -1z"/>
<path d="M1616 1023 c-4 -18 -18 -41 -32 -52 -29 -23 -30 -31 -4 -31 18 0 20
-7 20 -85 0 -80 2 -86 25 -101 32 -21 71 -7 85 32 13 33 13 47 0 39 -5 -3 -10
-15 -10 -25 0 -29 -35 -44 -54 -24 -12 11 -16 36 -16 90 l0 74 35 0 c44 0 46
18 3 22 -31 3 -33 6 -38 48 l-6 45 -8 -32z"/>
<path d="M1135 960 c-16 -7 -16 -9 -4 -9 24 -1 29 -22 29 -107 0 -68 -2 -75
-22 -84 -18 -7 -9 -9 37 -9 58 -1 59 -1 36 15 -21 15 -23 22 -18 76 6 65 27
98 61 98 41 0 50 -16 54 -88 4 -64 2 -71 -19 -86 -23 -16 -22 -16 36 -16 57 0
58 1 37 16 -19 13 -22 24 -22 88 0 46 -5 79 -14 91 -17 24 -78 25 -104 2 -24
-22 -32 -21 -32 3 0 21 -20 25 -55 10z"/>
<path d="M1440 960 c-30 -5 -32 -6 -12 -12 21 -6 22 -11 22 -93 0 -78 -2 -87
-20 -92 -38 -10 -12 -18 47 -14 45 3 53 5 36 12 -22 8 -23 14 -23 103 0 52 -3
96 -7 98 -5 2 -24 2 -43 -2z"/>
<path d="M323 938 c-25 -12 -38 -55 -28 -98 6 -29 56 -80 77 -80 6 0 -1 10
-16 21 -39 31 -32 63 14 67 53 5 67 45 30 82 -22 22 -43 24 -77 8z m83 -63
c-3 -10 -17 -14 -38 -13 l-33 1 33 4 c25 3 32 9 33 26 0 12 3 16 6 9 3 -7 2
-19 -1 -27z m-93 -20 c4 -27 3 -35 -3 -25 -5 8 -10 28 -10 44 0 39 6 30 13
-19z"/>
</g>
</svg>
