<?xml version="1.0" standalone="no"?><!DOCTYPE svg PUBLIC "-//W3C//DTD SVG 1.1//EN" "http://www.w3.org/Graphics/SVG/1.1/DTD/svg11.dtd"><svg t="1609817235398" class="icon" viewBox="0 0 1024 1024" version="1.1" xmlns="http://www.w3.org/2000/svg" p-id="3203" xmlns:xlink="http://www.w3.org/1999/xlink" width="200" height="200"><defs><style type="text/css"></style></defs><path d="M534.987755 908.538776l18.808163-1.567347c1.567347 0 3.134694-0.522449 5.22449-0.522449 4.702041-0.522449 9.404082-1.044898 14.106123-2.089796 84.636735-13.061224 162.481633-52.767347 223.085714-115.461225 48.587755-50.155102 82.546939-110.759184 99.787755-176.587755 0-0.522449 0-1.044898 0.522449-1.567347 1.567347-5.22449 2.612245-10.971429 3.657143-16.718367 0-1.044898 0.522449-2.089796 0.522449-3.134694 1.044898-5.22449 2.089796-10.44898 2.612245-15.15102 0-1.567347 0.522449-2.612245 0.522449-4.179592 0.522449-4.702041 1.044898-9.404082 2.089796-14.628572 0-1.567347 0.522449-3.657143 0.522449-5.22449 0.522449-4.702041 1.044898-9.404082 1.044898-14.628571 0-1.567347 0.522449-3.657143 0.522449-5.22449 0.522449-6.791837 0.522449-13.061224 0.522449-19.853061s0-13.583673-0.522449-19.853061c0-1.567347-0.522449-3.657143-0.522449-5.22449-0.522449-4.702041-0.522449-9.926531-1.044898-14.628571 0-1.567347-0.522449-3.657143-0.522449-5.22449-0.522449-4.702041-1.044898-9.404082-2.089796-14.628572 0-1.567347-0.522449-2.612245-0.522449-4.179592-1.044898-5.22449-1.567347-10.44898-2.612245-15.15102 0-1.044898-0.522449-2.089796-0.522449-3.134694-1.044898-5.746939-2.612245-10.971429-3.657143-16.718367 0-0.522449 0-1.044898-0.522449-1.567347-17.240816-65.828571-51.2-126.955102-99.787755-176.587755-61.126531-62.693878-138.44898-102.4-223.085714-115.461225-4.702041-0.522449-9.404082-1.044898-14.106123-2.089796-1.567347 0-3.134694-0.522449-5.22449-0.522449l-18.808163-1.567347h-0.522449c-6.269388-0.522449-13.061224-0.522449-19.330612-0.522448h-10.971429c-6.269388 0-13.061224 0.522449-19.330612 1.044897h-0.522449l-18.808163 1.567347h-1.567347c-5.746939 0.522449-11.493878 1.567347-17.240816 2.612245-1.044898 0-2.612245 0.522449-3.657143 0.522449-4.702041 1.044898-9.926531 1.567347-14.628572 2.612245-2.612245 0.522449-4.702041 1.044898-6.791836 1.567347-3.657143 1.044898-7.314286 1.567347-10.971429 2.612245l-10.971429 3.134694c-2.089796 0.522449-4.179592 1.044898-6.791836 2.089796-5.22449 1.567347-10.44898 3.657143-15.67347 5.22449-0.522449 0-1.044898 0.522449-1.567347 0.522449-55.379592 20.897959-106.057143 53.289796-147.853061 96.653061-48.587755 50.155102-82.546939 110.759184-99.787755 176.587755 0 0.522449 0 1.044898-0.522449 1.567347-1.567347 5.22449-2.612245 10.971429-3.657143 16.718367 0 1.044898-0.522449 2.089796-0.522449 3.134694-1.044898 5.22449-2.089796 10.44898-2.612245 15.15102 0 1.567347-0.522449 2.612245-0.522449 4.179592-0.522449 4.702041-1.044898 9.404082-2.089796 14.628572 0 1.567347-0.522449 3.657143-0.522449 5.22449-0.522449 4.702041-1.044898 9.404082-1.044898 14.628571 0 1.567347-0.522449 3.657143-0.522449 5.22449-1.044898 6.269388-1.044898 13.061224-1.044897 19.853061s0 13.583673 0.522448 19.853061c0 1.567347 0.522449 3.657143 0.522449 5.22449 0.522449 4.702041 0.522449 9.926531 1.044898 14.628571 0 1.567347 0.522449 3.657143 0.522449 5.22449 0.522449 4.702041 1.044898 9.404082 2.089796 14.628572 0 1.567347 0.522449 2.612245 0.522449 4.179592 1.044898 5.22449 1.567347 10.44898 2.612245 15.15102 0 1.044898 0.522449 2.089796 0.522449 3.134694 1.044898 5.746939 2.612245 10.971429 3.657143 16.718367 0 0.522449 0 1.044898 0.522449 1.567347 17.240816 65.828571 51.2 126.955102 99.787755 176.587755 42.318367 43.363265 92.473469 75.755102 147.853061 96.130612 0.522449 0 1.567347 0.522449 2.089796 0.522449 5.22449 2.089796 10.44898 3.657143 15.151021 5.22449 2.089796 0.522449 4.702041 1.567347 6.791836 2.089796l10.971429 3.134694c3.657143 1.044898 7.314286 2.089796 10.971429 2.612245 2.089796 0.522449 4.702041 1.044898 6.791836 1.567347 4.702041 1.044898 9.926531 2.089796 14.628572 2.612245 1.044898 0 2.612245 0.522449 3.657143 0.522449 5.746939 1.044898 11.493878 1.567347 17.240816 2.612245h1.567347l18.808163 1.567347h0.522449c6.269388 0.522449 12.538776 0.522449 19.330612 1.044898h11.493878c6.269388 0 13.061224 0 19.330612-0.522449l0.522449 0.522449z" fill="#7BD4EF" p-id="3204"></path><path d="M447.216327 859.428571c-3.134694-0.522449-6.269388-1.044898-8.881633-1.567347-4.179592-1.044898-8.881633-2.089796-13.061225-3.134693-1.567347-0.522449-3.134694-1.044898-4.70204-1.044898-3.657143-1.044898-7.836735-2.089796-11.493878-3.134694-1.044898-0.522449-2.089796-0.522449-3.134694-1.044898-49.632653-15.673469-95.085714-42.318367-132.702041-76.8 24.555102-22.987755 52.244898-41.795918 82.546939-56.42449 22.987755 52.767347 55.379592 101.877551 94.563265 144.195918-1.044898-1.044898-2.089796-1.044898-3.134693-1.044898z m-272.718368-242.416326l-4.702041-15.673469c0-0.522449-0.522449-1.044898-0.522449-1.567347-1.044898-4.702041-2.089796-9.926531-3.134693-14.628572 0-1.044898-0.522449-1.567347-0.522449-2.612245-1.044898-4.702041-1.567347-8.881633-2.612245-13.583673 0-1.567347-0.522449-2.612245-0.522449-4.179592l-1.567347-12.538776c0-1.567347-0.522449-3.134694-0.522449-4.70204-0.522449-4.179592-0.522449-8.359184-1.044898-13.061225v-3.134694h154.644898c2.089796 50.155102 10.971429 99.787755 27.689796 146.808164-35.004082 16.718367-66.873469 38.661224-95.608164 65.306122-31.869388-36.04898-56.42449-78.889796-71.57551-126.432653z m-14.106122-140.538776c0-1.567347 0.522449-3.134694 0.522449-4.70204l1.567347-12.538776c0-1.567347 0.522449-2.612245 0.522449-4.179592 0.522449-4.702041 1.567347-8.881633 2.612245-13.583673 0-1.044898 0.522449-2.089796 0.522449-2.612245 1.044898-4.702041 2.089796-9.926531 3.134693-14.628572 0-0.522449 0.522449-1.044898 0.522449-1.567347 1.567347-5.22449 2.612245-10.44898 4.702041-15.673469C189.64898 359.444898 214.204082 316.604082 245.55102 280.032653c28.734694 26.644898 60.604082 48.065306 95.608164 65.306123-16.195918 47.542857-25.6 96.653061-27.689796 146.808163H159.346939v-3.134694c0.522449-4.179592 0.522449-8.359184 1.044898-12.538776z m245.55102-301.453061c1.044898-0.522449 2.089796-0.522449 3.134694-1.044898 4.179592-1.044898 7.836735-2.089796 12.016327-3.657143 1.567347-0.522449 2.612245-1.044898 4.179591-1.044898 4.179592-1.044898 8.881633-2.089796 13.583674-3.134693 3.134694-0.522449 5.746939-1.044898 8.881633-1.567347 1.044898 0 2.089796-0.522449 3.134693-0.522449-40.228571 42.840816-72.097959 91.428571-95.608163 144.718367-29.779592-14.628571-57.469388-33.959184-82.546939-56.42449 38.138776-35.004082 83.069388-61.64898 133.22449-77.322449z m176.587755-8.881632h1.044898c63.738776 13.061224 120.685714 43.363265 167.183674 85.681632-26.122449 24.032653-54.857143 43.363265-86.204082 58.514286-23.510204-54.334694-55.902041-103.967347-96.653061-147.330612 5.22449 1.044898 9.926531 2.089796 14.628571 3.134694z m266.971429 240.848979l4.702041 15.673469c0 0.522449 0.522449 1.044898 0.522449 1.567347 1.044898 4.702041 2.089796 9.926531 3.134693 14.628572 0 1.044898 0.522449 1.567347 0.522449 2.612245 1.044898 4.702041 1.567347 8.881633 2.612245 13.583673 0 1.567347 0.522449 2.612245 0.522449 4.179592l1.567347 12.538776c0 1.567347 0.522449 3.134694 0.522449 4.70204 0.522449 4.179592 0.522449 8.359184 1.044898 13.061225v3.134694H705.306122c-2.089796-49.632653-10.971429-98.220408-26.644898-145.240817 36.571429-17.240816 70.008163-39.706122 99.787756-67.395918 31.346939 36.571429 55.902041 79.412245 71.053061 126.955102z m14.106122 140.538776c0 1.567347-0.522449 3.134694-0.522449 4.70204l-1.567347 12.538776c0 1.567347-0.522449 2.612245-0.522449 4.179592-0.522449 4.702041-1.567347 8.881633-2.612245 13.583673 0 1.044898-0.522449 2.089796-0.522449 2.612245-1.044898 4.702041-2.089796 9.926531-3.134693 14.628572 0 0.522449-0.522449 1.044898-0.522449 1.567347-1.567347 5.22449-2.612245 10.44898-4.702041 15.673469-14.628571 47.542857-39.183673 90.383673-71.053061 126.955102-29.779592-27.689796-63.216327-50.155102-99.787756-67.395918 16.195918-47.020408 25.077551-95.608163 26.644898-145.240817h159.346939v3.134694c-0.522449 4.702041-0.522449 8.881633-1.044898 13.061225z m-221.518367 114.416326c-35.526531-12.538776-72.620408-19.853061-110.759184-21.420408v-108.669388h134.269388c-1.044898 44.408163-9.404082 87.771429-23.510204 130.089796z m-110.236735-169.795918V384c37.616327-2.089796 74.710204-8.881633 110.759184-21.420408 14.106122 41.795918 21.942857 85.681633 24.032653 130.089796h-134.791837z m0-147.330612V182.334694c40.75102 41.273469 73.665306 90.383673 96.653061 143.673469-31.346939 10.44898-63.738776 16.718367-96.653061 18.808164z m-39.706122 0c-34.481633-2.089796-67.918367-8.881633-100.310204-20.89796 24.032653-54.857143 57.991837-104.489796 100.832653-146.808163V344.816327z m-114.938776 15.673469c37.093878 13.583673 75.232653 21.420408 114.938776 22.987755v108.669388H353.17551c1.567347-44.930612 9.926531-88.816327 24.032653-131.657143z m114.938776 171.363265v108.669388c-39.706122 2.089796-77.844898 9.926531-114.938776 22.987755-14.628571-42.318367-22.465306-86.726531-24.555102-131.657143h139.493878z m0 147.330612v167.183674c-42.318367-41.795918-76.8-91.95102-100.310204-146.285714 32.391837-12.016327 65.828571-18.808163 100.310204-20.89796z m39.706122 0c32.914286 1.567347 65.306122 8.359184 96.653061 18.808164-22.987755 53.289796-55.902041 101.877551-96.653061 143.673469V679.183673z m132.702041 33.959184c31.346939 15.15102 60.604082 34.481633 86.204082 58.514286-42.318367 38.661224-93.518367 67.395918-150.465306 82.02449-5.22449 1.567347-10.971429 2.612245-16.195919 3.657143-0.522449 0-1.044898 0-1.044898 0.522448-4.702041 1.044898-9.926531 2.089796-14.628571 2.612245 39.706122-42.840816 72.620408-92.995918 96.130612-147.330612z" fill="#DCF8FF" p-id="3205"></path></svg>